<svg id="visual" viewBox="0 0 540 960" width="540" height="960" xmlns="http://www.w3.org/2000/svg" xmlns:xlink="http://www.w3.org/1999/xlink" version="1.1"><rect x="0" y="0" width="540" height="960" fill="#ffffff"></rect><defs><linearGradient id="grad1_0" x1="0%" y1="0%" x2="100%" y2="100%"><stop offset="30%" stop-color="#a5a5a5" stop-opacity="1"></stop><stop offset="70%" stop-color="#a5a5a5" stop-opacity="1"></stop></linearGradient></defs><defs><linearGradient id="grad1_1" x1="0%" y1="0%" x2="100%" y2="100%"><stop offset="30%" stop-color="#a5a5a5" stop-opacity="1"></stop><stop offset="70%" stop-color="#b3b3b3" stop-opacity="1"></stop></linearGradient></defs><defs><linearGradient id="grad1_2" x1="0%" y1="0%" x2="100%" y2="100%"><stop offset="30%" stop-color="#c2c2c2" stop-opacity="1"></stop><stop offset="70%" stop-color="#b3b3b3" stop-opacity="1"></stop></linearGradient></defs><defs><linearGradient id="grad1_3" x1="0%" y1="0%" x2="100%" y2="100%"><stop offset="30%" stop-color="#c2c2c2" stop-opacity="1"></stop><stop offset="70%" stop-color="#d1d1d1" stop-opacity="1"></stop></linearGradient></defs><defs><linearGradient id="grad1_4" x1="0%" y1="0%" x2="100%" y2="100%"><stop offset="30%" stop-color="#e0e0e0" stop-opacity="1"></stop><stop offset="70%" stop-color="#d1d1d1" stop-opacity="1"></stop></linearGradient></defs><defs><linearGradient id="grad1_5" x1="0%" y1="0%" x2="100%" y2="100%"><stop offset="30%" stop-color="#e0e0e0" stop-opacity="1"></stop><stop offset="70%" stop-color="#f0f0f0" stop-opacity="1"></stop></linearGradient></defs><defs><linearGradient id="grad1_6" x1="0%" y1="0%" x2="100%" y2="100%"><stop offset="30%" stop-color="#ffffff" stop-opacity="1"></stop><stop offset="70%" stop-color="#f0f0f0" stop-opacity="1"></stop></linearGradient></defs><defs><linearGradient id="grad2_0" x1="0%" y1="0%" x2="100%" y2="100%"><stop offset="30%" stop-color="#a5a5a5" stop-opacity="1"></stop><stop offset="70%" stop-color="#a5a5a5" stop-opacity="1"></stop></linearGradient></defs><defs><linearGradient id="grad2_1" x1="0%" y1="0%" x2="100%" y2="100%"><stop offset="30%" stop-color="#b3b3b3" stop-opacity="1"></stop><stop offset="70%" stop-color="#a5a5a5" stop-opacity="1"></stop></linearGradient></defs><defs><linearGradient id="grad2_2" x1="0%" y1="0%" x2="100%" y2="100%"><stop offset="30%" stop-color="#b3b3b3" stop-opacity="1"></stop><stop offset="70%" stop-color="#c2c2c2" stop-opacity="1"></stop></linearGradient></defs><defs><linearGradient id="grad2_3" x1="0%" y1="0%" x2="100%" y2="100%"><stop offset="30%" stop-color="#d1d1d1" stop-opacity="1"></stop><stop offset="70%" stop-color="#c2c2c2" stop-opacity="1"></stop></linearGradient></defs><defs><linearGradient id="grad2_4" x1="0%" y1="0%" x2="100%" y2="100%"><stop offset="30%" stop-color="#d1d1d1" stop-opacity="1"></stop><stop offset="70%" stop-color="#e0e0e0" stop-opacity="1"></stop></linearGradient></defs><defs><linearGradient id="grad2_5" x1="0%" y1="0%" x2="100%" y2="100%"><stop offset="30%" stop-color="#f0f0f0" stop-opacity="1"></stop><stop offset="70%" stop-color="#e0e0e0" stop-opacity="1"></stop></linearGradient></defs><defs><linearGradient id="grad2_6" x1="0%" y1="0%" x2="100%" y2="100%"><stop offset="30%" stop-color="#f0f0f0" stop-opacity="1"></stop><stop offset="70%" stop-color="#ffffff" stop-opacity="1"></stop></linearGradient></defs><g transform="translate(540, 0)"><path d="M0 486C-43 458 -86 430.1 -136.3 419.4C-186.5 408.8 -244.1 415.4 -285.7 393.2C-327.2 371 -352.8 319.9 -377.8 274.5C-402.8 229.1 -427.2 189.4 -445.1 144.6C-463 99.8 -474.5 49.9 -486 0L0 0Z" fill="#f7f7f7"></path><path d="M0 416.6C-36.9 392.6 -73.7 368.6 -116.8 359.5C-159.9 350.4 -209.2 356.1 -244.9 337C-280.5 318 -302.4 274.2 -323.8 235.3C-345.3 196.4 -366.1 162.4 -381.5 124C-396.9 85.6 -406.7 42.8 -416.6 0L0 0Z" fill="#e8e8e8"></path><path d="M0 347.1C-30.7 327.2 -61.4 307.2 -97.3 299.6C-133.2 292 -174.4 296.7 -204 280.8C-233.7 265 -252 228.5 -269.9 196.1C-287.7 163.6 -305.1 135.3 -317.9 103.3C-330.7 71.3 -338.9 35.6 -347.1 0L0 0Z" fill="#d9d9d9"></path><path d="M0 277.7C-24.6 261.7 -49.1 245.8 -77.9 239.7C-106.6 233.6 -139.5 237.4 -163.2 224.7C-187 212 -201.6 182.8 -215.9 156.9C-230.2 130.9 -244.1 108.2 -254.3 82.6C-264.6 57 -271.1 28.5 -277.7 0L0 0Z" fill="#cacaca"></path><path d="M0 208.3C-18.4 196.3 -36.9 184.3 -58.4 179.7C-79.9 175.2 -104.6 178 -122.4 168.5C-140.2 159 -151.2 137.1 -161.9 117.6C-172.6 98.2 -183.1 81.2 -190.8 62C-198.4 42.8 -203.4 21.4 -208.3 0L0 0Z" fill="#bbbbbb"></path><path d="M0 138.9C-12.3 130.9 -24.6 122.9 -38.9 119.8C-53.3 116.8 -69.7 118.7 -81.6 112.3C-93.5 106 -100.8 91.4 -107.9 78.4C-115.1 65.5 -122 54.1 -127.2 41.3C-132.3 28.5 -135.6 14.3 -138.9 0L0 0Z" fill="#acacac"></path><path d="M0 69.4C-6.1 65.4 -12.3 61.4 -19.5 59.9C-26.6 58.4 -34.9 59.3 -40.8 56.2C-46.7 53 -50.4 45.7 -54 39.2C-57.5 32.7 -61 27.1 -63.6 20.7C-66.1 14.3 -67.8 7.1 -69.4 0L0 0Z" fill="#a5a5a5"></path></g><g transform="translate(0, 960)"><path d="M0 -486C46.8 -469.3 93.7 -452.7 142.1 -437.5C190.6 -422.3 240.7 -408.6 274.5 -377.8C308.3 -347 325.9 -299.1 358.4 -260.4C390.9 -221.6 438.4 -192.1 462.2 -150.2C486 -108.3 486 -54.2 486 0L0 0Z" fill="#f7f7f7"></path><path d="M0 -416.6C40.2 -402.3 80.3 -388 121.8 -375C163.4 -362 206.3 -350.2 235.3 -323.8C264.3 -297.4 279.3 -256.4 307.2 -223.2C335.1 -190 375.8 -164.6 396.2 -128.7C416.6 -92.8 416.6 -46.4 416.6 0L0 0Z" fill="#e8e8e8"></path><path d="M0 -347.1C33.5 -335.2 66.9 -323.3 101.5 -312.5C136.1 -301.6 171.9 -291.9 196.1 -269.9C220.2 -247.9 232.8 -213.7 256 -186C279.2 -158.3 313.2 -137.2 330.2 -107.3C347.1 -77.4 347.1 -38.7 347.1 0L0 0Z" fill="#d9d9d9"></path><path d="M0 -277.7C26.8 -268.2 53.5 -258.7 81.2 -250C108.9 -241.3 137.5 -233.5 156.9 -215.9C176.2 -198.3 186.2 -170.9 204.8 -148.8C223.4 -126.7 250.5 -109.7 264.1 -85.8C277.7 -61.9 277.7 -30.9 277.7 0L0 0Z" fill="#cacaca"></path><path d="M0 -208.3C20.1 -201.1 40.2 -194 60.9 -187.5C81.7 -181 103.1 -175.1 117.6 -161.9C132.1 -148.7 139.7 -128.2 153.6 -111.6C167.5 -95 187.9 -82.3 198.1 -64.4C208.3 -46.4 208.3 -23.2 208.3 0L0 0Z" fill="#bbbbbb"></path><path d="M0 -138.9C13.4 -134.1 26.8 -129.3 40.6 -125C54.5 -120.7 68.8 -116.7 78.4 -107.9C88.1 -99.1 93.1 -85.5 102.4 -74.4C111.7 -63.3 125.3 -54.9 132.1 -42.9C138.9 -30.9 138.9 -15.5 138.9 0L0 0Z" fill="#acacac"></path><path d="M0 -69.4C6.7 -67 13.4 -64.7 20.3 -62.5C27.2 -60.3 34.4 -58.4 39.2 -54C44 -49.6 46.6 -42.7 51.2 -37.2C55.8 -31.7 62.6 -27.4 66 -21.5C69.4 -15.5 69.4 -7.7 69.4 0L0 0Z" fill="#a5a5a5"></path></g></svg>